<?xml version="1.0" standalone="no"?>
<!DOCTYPE svg PUBLIC "-//W3C//DTD SVG 20010904//EN"
 "http://www.w3.org/TR/2001/REC-SVG-20010904/DTD/svg10.dtd">
<svg version="1.0" xmlns="http://www.w3.org/2000/svg"
 width="768.000000pt" height="768.000000pt" viewBox="0 0 768.000000 768.000000"
 preserveAspectRatio="xMidYMid meet">
<metadata>
Created by potrace 1.14, written by Peter Selinger 2001-2017
</metadata>
<g transform="translate(0.000000,768.000000) scale(0.100000,-0.100000)"
fill="#000000" stroke="none">
<path d="M3726 6833 c-2 -2 -39 -6 -82 -8 -86 -5 -147 -11 -209 -20 -22 -3
-47 -6 -55 -6 -8 -1 -34 -5 -58 -10 -23 -5 -59 -12 -80 -15 -20 -3 -50 -9 -67
-14 -16 -5 -48 -13 -70 -19 -22 -5 -85 -24 -140 -40 -55 -17 -102 -30 -105
-29 -3 0 -24 -9 -46 -20 -23 -12 -44 -18 -48 -15 -3 4 -6 2 -6 -4 0 -5 -6 -10
-14 -10 -7 0 -35 -10 -62 -22 -51 -24 -96 -44 -104 -45 -12 -3 -266 -139 -270
-146 -3 -4 -15 -10 -27 -14 -13 -4 -23 -12 -23 -17 0 -5 -7 -9 -15 -9 -8 0
-15 -4 -15 -10 0 -5 -4 -10 -9 -10 -6 0 -31 -15 -56 -32 -26 -18 -54 -37 -64
-43 -16 -9 -122 -92 -180 -140 -58 -48 -130 -117 -215 -203 -142 -146 -156
-161 -156 -167 0 -3 -9 -15 -20 -27 -36 -40 -46 -52 -71 -88 -13 -19 -26 -37
-29 -40 -16 -14 -100 -140 -100 -148 0 -6 -4 -12 -9 -14 -7 -2 -171 -283 -171
-292 0 -2 -14 -34 -32 -72 -17 -38 -31 -72 -30 -76 1 -5 -3 -8 -9 -8 -5 0 -7
-5 -4 -11 4 -6 -1 -17 -11 -25 -11 -9 -12 -12 -4 -8 12 6 13 5 4 -7 -17 -21
-100 -270 -128 -384 -28 -115 -52 -235 -62 -317 -2 -21 -6 -57 -9 -80 -3 -24
-7 -74 -9 -113 -2 -38 -5 -72 -6 -75 -6 -12 -4 -290 1 -290 3 0 6 -26 6 -57 0
-52 5 -108 17 -198 3 -16 8 -55 11 -85 4 -30 11 -60 16 -66 5 -6 6 -13 3 -16
-14 -15 88 -372 153 -538 4 -8 7 -17 8 -20 1 -3 9 -22 19 -42 9 -21 16 -40 16
-43 1 -10 135 -263 173 -325 22 -36 45 -75 51 -87 6 -13 14 -23 19 -23 4 0 7
-7 7 -15 0 -9 7 -18 15 -21 8 -4 15 -11 15 -16 0 -6 11 -24 25 -42 34 -42 37
-46 65 -86 13 -19 32 -42 42 -51 10 -9 18 -21 18 -27 0 -6 9 -16 20 -22 11 -6
20 -15 20 -19 0 -5 24 -34 52 -65 29 -30 58 -61 64 -68 19 -23 180 -172 224
-207 23 -19 48 -40 54 -46 12 -12 131 -101 166 -125 12 -8 33 -23 45 -33 13
-9 28 -17 33 -17 6 0 12 -4 14 -8 10 -24 453 -256 513 -268 6 -1 28 -10 50
-20 22 -10 45 -19 51 -20 7 -1 38 -11 70 -22 86 -30 326 -94 341 -91 4 1 10 0
13 -1 32 -12 197 -36 315 -46 92 -8 469 -8 540 0 39 4 90 10 115 13 57 6 85
10 85 13 0 1 11 3 25 4 121 14 418 93 540 143 8 3 17 7 20 8 41 11 110 42 110
48 0 4 4 6 9 2 5 -3 12 -1 16 5 4 6 11 8 16 5 5 -4 9 -1 9 4 0 6 5 11 12 11
22 0 251 122 368 196 111 70 129 83 190 132 15 12 31 22 34 22 3 0 14 8 24 18
32 30 82 72 86 72 10 0 276 255 276 264 0 4 48 58 104 118 14 15 26 32 26 37
0 5 4 11 8 13 5 2 28 30 53 63 24 33 49 66 56 73 6 6 15 21 18 32 3 11 11 20
16 20 6 0 8 4 5 9 -3 5 1 11 9 15 8 3 15 12 15 21 0 8 3 15 8 15 4 0 13 14 20
30 8 17 19 36 25 43 13 14 26 38 102 184 29 56 50 104 47 107 -3 3 1 6 8 6 7
0 10 3 7 7 -4 3 -1 13 5 21 7 7 14 23 15 35 2 12 7 24 11 27 4 3 8 12 10 20 2
8 10 29 17 45 43 91 150 467 141 491 -3 7 -1 14 3 16 5 2 11 26 15 53 3 28 8
61 11 74 19 96 28 235 28 451 0 235 -7 326 -42 530 -23 139 -100 421 -132 485
-6 12 -11 27 -13 35 -11 56 -157 360 -228 473 -26 43 -48 81 -48 83 0 3 -5 10
-10 17 -6 7 -27 37 -47 67 -20 30 -40 59 -45 65 -4 5 -24 30 -43 55 -19 25
-44 55 -55 67 -11 12 -20 25 -20 29 0 4 -10 16 -22 28 -13 12 -52 55 -88 95
-78 89 -70 80 -161 163 -105 95 -127 114 -189 161 -30 23 -56 45 -58 50 -2 4
-9 7 -16 7 -6 0 -18 9 -26 20 -8 11 -22 20 -32 20 -10 0 -18 4 -18 9 0 9 -156
111 -170 111 -5 0 -10 3 -12 8 -1 4 -19 15 -38 26 -56 29 -215 110 -220 112
-41 13 -50 18 -50 25 0 5 -7 9 -15 9 -9 0 -34 9 -55 20 -22 11 -40 18 -40 15
0 -3 -13 1 -29 10 -39 20 -192 69 -311 101 -89 23 -284 64 -299 62 -3 0 -8 1
-11 2 -18 7 -109 16 -250 26 -91 6 -310 11 -314 7z"/>
</g>
</svg>
